<svg width="438" height="394" viewBox="0 0 438 394" fill="none" xmlns="http://www.w3.org/2000/svg">
<g filter="url(#filter0_d_275_538)">
<path d="M313.053 70.8016C340.853 91.2259 371.651 102.391 394.272 123.905C416.894 145.418 431.066 177.553 429.431 208.597C427.523 239.642 409.263 269.598 392.637 301.46C376.284 333.594 361.294 367.362 335.13 377.438C309.238 387.514 272.171 373.626 238.921 367.634C205.398 361.643 175.417 363.55 138.351 359.737C101.285 356.197 56.8595 347.21 29.8774 321.339C3.16781 295.469 -6.37133 252.442 4.25799 215.95C14.8873 179.186 45.6851 148.686 67.7614 114.101C89.5651 79.516 102.647 40.846 129.084 19.6048C155.521 -1.63648 195.313 -5.44901 227.746 7.35021C260.452 20.4217 285.254 50.3774 313.053 70.8016Z" fill="white"/>
<path d="M391.307 300.766L391.304 300.773L391.3 300.78C389.879 303.573 388.47 306.373 387.065 309.165C380.361 322.492 373.753 335.628 366.311 346.894C357.312 360.517 347.239 371.167 334.591 376.038L334.586 376.04C322.049 380.919 306.662 380.038 290.047 377.085C281.763 375.612 273.241 373.638 264.679 371.65L264.359 371.575C255.917 369.614 247.439 367.645 239.187 366.158L239.185 366.158C222.322 363.144 206.365 362.12 190.033 361.37C187.136 361.237 184.227 361.113 181.3 360.988C167.708 360.407 153.708 359.809 138.504 358.245L138.494 358.244C101.442 354.705 57.4966 345.741 30.9183 320.259C4.65354 294.817 -4.79287 252.386 5.69814 216.37L5.69897 216.367C10.9411 198.236 21.1759 181.588 32.9387 165.079C37.1034 159.234 41.4733 153.39 45.8732 147.505C53.8388 136.852 61.9027 126.067 69.0258 114.908L69.0303 114.901C76.1509 103.606 82.3747 91.8225 88.402 80.4106C91.6201 74.3176 94.7822 68.3306 97.9949 62.5806C107.277 45.9674 117.042 31.2046 130.024 20.7741C155.979 -0.0800016 195.184 -3.8863 227.193 8.74454C243.312 15.1876 257.538 25.8137 271.269 37.4625C275.681 41.2048 280.052 45.0633 284.419 48.9178C293.578 57.0024 302.718 65.0695 312.165 72.0105C323.983 80.6931 336.346 87.7166 348.314 94.5158C350.511 95.7637 352.694 97.0041 354.858 98.2458C368.854 106.276 382.07 114.37 393.239 124.992C415.575 146.234 429.541 177.952 427.933 208.514C426.994 223.777 422.031 238.835 415.184 254.109C410.189 265.254 404.228 276.435 398.134 287.868C395.863 292.129 393.573 296.424 391.307 300.766Z" stroke="#3F8526" stroke-width="3"/>
</g>
<path d="M239.587 239.101C238.205 238.593 235.645 236.27 235.227 235.39C232.448 229.53 226.531 218.896 228.441 212.31C228.767 211.186 234.102 211.285 235.053 210.4C238.47 209.638 239.702 209.585 242.594 207.265C251.132 200.414 239.555 181.279 258.426 179.763C272.248 178.653 282.138 185.575 285.3 165.226C288.462 144.878 312.639 111.981 330.618 130.76C340.937 141.537 324.744 155.774 328.136 169.758C331.36 183.047 324.065 191.727 309.753 196.012C295.44 200.297 300.965 207.345 302.075 219.53C303.407 234.166 281.891 231.819 272.049 229.888C264.125 228.333 242.896 229.72 239.587 239.101Z" fill="url(#paint0_linear_275_538)"/>
<mask id="mask0_275_538" style="mask-type:luminance" maskUnits="userSpaceOnUse" x="225" y="125" width="110" height="117">
<path d="M225.441 209.446C226.29 219.533 226.737 229.831 227.537 239.993C233.036 241.761 239.547 243.706 242.401 237.105C246.37 227.927 263.869 228.131 271.768 229.781C281.545 231.822 303.086 234.271 301.843 219.638C300.808 207.455 295.34 200.36 309.68 196.174C324.02 191.989 331.371 183.356 328.24 170.045C324.945 156.037 341.229 141.918 330.986 131.065C313.138 112.154 288.724 144.917 285.44 165.217C282.155 185.517 272.245 178.639 258.476 179.559C239.679 180.816 250.821 200.508 242.54 206.803C236.048 211.738 232.322 209.686 225.441 209.446Z" fill="white"/>
</mask>
<g mask="url(#mask0_275_538)">
<g opacity="0.8">
<path d="M231.616 224.101L231.547 223.796C278.579 213.113 314.177 175.683 326.771 123.671L327.075 123.744C321.107 148.394 309.504 170.603 293.52 187.968C276.717 206.224 255.311 218.719 231.616 224.101Z" fill="white"/>
<path d="M303.052 225.668C291.786 218.805 271.399 213.914 257.606 214.766L257.587 214.453C271.434 213.598 291.903 218.51 303.215 225.401L303.052 225.668Z" fill="white"/>
<path d="M240.825 221.897L240.674 221.623C246.963 218.153 251.257 211.637 253.435 202.255C255.032 195.376 255.476 187.146 254.755 177.792L255.067 177.768C255.791 187.153 255.345 195.416 253.74 202.326C251.541 211.798 247.196 218.383 240.825 221.897Z" fill="white"/>
<path d="M295.694 185.414L295.528 185.148C307.047 177.998 321.287 178.699 331.204 180.546L331.147 180.854C321.284 179.017 307.127 178.317 295.694 185.414Z" fill="white"/>
<path d="M313.404 159.929L313.105 159.835C317.655 145.255 312.182 130.186 308.516 122.501L308.798 122.366C312.485 130.093 317.986 145.247 313.404 159.929Z" fill="white"/>
</g>
</g>
<mask id="mask1_275_538" style="mask-type:luminance" maskUnits="userSpaceOnUse" x="227" y="81" width="80" height="155">
<path d="M248.939 235.597C241.945 234.008 234.97 232.257 228.021 230.344C227.899 230.439 226.773 214.881 234.703 207.383C250.36 192.88 241.718 178.102 239.587 169.578C236.054 157.517 239.436 143.454 252.133 147.122C264.527 150.394 268.442 124.66 267.819 104.552C266.72 94.7039 276.79 83.6394 286.136 81.6573C295.696 79.3996 304.531 86.2243 305.883 105.79C308.465 128.522 291.071 140.76 284.148 151.52C277.337 162.081 290.499 172.075 278.59 180.977C268.537 188.928 256.232 194.25 259.711 205.486C263.318 216.609 261.571 225.338 248.939 235.597Z" fill="white"/>
</mask>
<g mask="url(#mask1_275_538)">
<path d="M248.939 235.597C241.945 234.008 234.97 232.257 228.021 230.344C227.899 230.439 226.773 214.881 234.703 207.383C250.36 192.879 241.718 178.102 239.587 169.578C236.098 157.529 239.395 145.031 251.325 145.768C264.578 146.327 268.671 124.637 267.819 104.552C266.72 94.7039 276.79 83.6394 286.136 81.6573C295.696 79.3996 304.531 86.2243 305.883 105.79C308.465 128.522 291.071 140.76 284.148 151.52C277.337 162.081 290.499 172.075 278.59 180.977C268.537 188.928 256.232 194.25 259.711 205.486C263.318 216.609 261.571 225.338 248.939 235.597Z" fill="url(#paint1_linear_275_538)"/>
</g>
<mask id="mask2_275_538" style="mask-type:luminance" maskUnits="userSpaceOnUse" x="227" y="81" width="80" height="155">
<path d="M248.939 235.597C241.945 234.008 234.97 232.257 228.021 230.344C227.899 230.439 226.773 214.881 234.703 207.383C250.36 192.88 241.718 178.102 239.587 169.578C236.054 157.517 239.436 143.454 252.133 147.122C264.527 150.394 268.442 124.66 267.819 104.552C266.72 94.7039 276.79 83.6394 286.136 81.6573C295.696 79.3996 304.531 86.2243 305.883 105.79C308.465 128.522 291.071 140.76 284.148 151.52C277.337 162.081 290.499 172.075 278.59 180.977C268.537 188.928 256.232 194.25 259.711 205.486C263.318 216.609 261.571 225.338 248.939 235.597Z" fill="white"/>
</mask>
<g mask="url(#mask2_275_538)">
<g opacity="0.8">
<path d="M239.051 235.745C239.059 235.608 248.329 203.771 262.437 173.172C264.441 168.2 266.589 163.193 268.667 158.351C280.236 131.386 291.164 105.916 283.83 76.0826L284.245 75.9805C291.613 105.953 280.658 131.487 269.059 158.52C266.983 163.36 264.836 168.365 262.829 173.341C248.645 204.106 239.512 235.591 239.475 235.788L239.051 235.745Z" fill="white"/>
<path d="M279.235 133.351L278.94 133.041C287.505 124.892 297.986 113.178 303.617 106.885C308.175 101.792 308.193 101.795 308.407 101.847L308.358 102.055L308.443 102.247C308.205 102.399 306.321 104.505 303.936 107.17C298.301 113.468 287.812 125.19 279.235 133.351Z" fill="white"/>
<path d="M282.434 121.472C281.586 111.353 277.989 104.453 275.122 100.446C271.999 96.0815 268.901 93.9455 268.507 93.843L268.549 93.6825L268.417 93.4484C268.529 93.3854 268.647 93.4254 268.828 93.521C271.412 94.8906 281.368 103.642 282.86 121.436L282.434 121.472Z" fill="white"/>
<path d="M254.32 193.296L253.901 193.213C257.832 173.407 245.702 153.701 240.304 146.149C240.014 145.743 239.921 145.611 239.889 145.544L240.274 145.359L240.081 145.451L240.273 145.357C240.298 145.405 240.462 145.634 240.652 145.9C244.545 151.347 247.738 157.003 250.145 162.711C254.767 173.677 256.172 183.967 254.32 193.296Z" fill="white"/>
<path d="M258.259 183.733L257.914 183.48C267.445 170.454 285.357 170.848 285.644 170.903C285.645 170.903 285.646 170.903 285.647 170.903L285.79 171.115L285.628 171.313L285.576 171.107L285.545 171.316C285.376 171.298 267.695 170.836 258.259 183.733Z" fill="white"/>
<path d="M240.642 230.549C241.106 226.505 240.19 219.475 233.196 208.954C232.799 208.358 232.799 208.358 232.823 208.249L233.24 208.343L233.032 208.296L233.231 208.223C233.252 208.268 233.391 208.477 233.551 208.718C240.618 219.346 241.539 226.482 241.067 230.598L240.642 230.549Z" fill="white"/>
<path d="M243.454 223.091L243.054 222.94C245.712 215.866 256.221 211.357 262.248 209.298C262.439 209.233 262.563 209.191 262.607 209.173L262.772 209.567C262.725 209.587 262.592 209.632 262.386 209.703C256.43 211.737 246.051 216.181 243.454 223.091Z" fill="white"/>
</g>
</g>
<path d="M339.31 181.483V294.018C339.31 297.754 336.149 300.733 332.262 300.672L138.925 298.801C135.577 298.744 132.871 295.9 132.871 292.447V188.454L339.31 181.483Z" fill="url(#paint2_linear_275_538)"/>
<path d="M138.925 174.999L331.189 166.346C333.066 166.267 335.855 168.049 337.121 169.155C338.469 170.332 339.31 172.037 339.31 173.962V185.493L336.834 184.235L132.871 192.16V181.504C132.871 178.051 135.577 175.139 138.925 174.999Z" fill="url(#paint3_linear_275_538)"/>
<path d="M336.834 184.235V292.537C336.834 296.265 333.686 299.242 329.815 299.186L137.203 297.557C133.867 297.505 131.17 294.669 131.17 291.222V187.406L336.834 184.235Z" fill="white"/>
<path d="M137.203 173.969L329.815 166.275C333.686 166.111 336.834 169 336.834 172.728V184.236L131.17 191.106V180.468C131.17 177.022 133.867 174.112 137.203 173.969Z" fill="url(#paint4_linear_275_538)"/>
<path d="M281.054 235.033L282.644 199.65C299.033 200.499 314.067 211.691 318.399 228.389L281.054 235.033Z" fill="url(#paint5_linear_275_538)"/>
<path d="M308.951 232.606C310.343 240.611 308.069 248.35 303.256 254.165L282.566 237.175L308.951 232.606Z" fill="url(#paint6_linear_275_538)"/>
<path d="M278.614 234.348C271.51 230.12 263.125 225.117 256.597 221.202C260.187 215.608 265.931 211.278 273.132 209.512C275.348 208.969 277.579 208.698 279.79 208.68L278.614 234.348Z" fill="url(#paint7_linear_275_538)"/>
<path d="M277.905 236.664L261.028 255.657C257.247 251.977 254.44 247.265 253.152 241.882C251.568 235.26 252.541 228.691 255.447 223.174C257.236 224.253 259.235 225.457 261.439 226.782C268.201 230.85 275.127 235 277.905 236.664Z" fill="url(#paint8_linear_275_538)"/>
<path d="M279.115 238.976L284.794 263.929C276.622 264.798 268.724 262.151 262.797 257.245L279.115 238.976Z" fill="url(#paint9_linear_275_538)"/>
<path d="M281.727 239.554L301.62 255.969C297.85 259.763 292.906 262.477 287.204 263.57L281.727 239.554Z" fill="url(#paint10_linear_275_538)"/>
<path d="M146.348 221.368L228.934 219.553V208.867L146.348 210.938V221.368Z" fill="#F9EFE4"/>
<path d="M146.348 240.242L228.934 238.89V228.204L146.348 229.812V240.242Z" fill="#F9EFE4"/>
<path d="M146.878 258.56L229.554 257.625V246.933L146.878 248.124V258.56Z" fill="#F9EFE4"/>
<path d="M146.878 277.442L229.554 276.971V266.279L146.878 267.007V277.442Z" fill="#F9EFE4"/>
<path d="M320.769 175.602C320.769 177.248 322.152 178.531 323.86 178.467C325.571 178.403 326.959 177.013 326.959 175.363C326.959 173.712 325.571 172.429 323.86 172.498C322.152 172.566 320.769 173.955 320.769 175.602Z" fill="white"/>
<path d="M162.201 141.154L184.334 117.816L162.527 95.6643L167.372 94.7539L202.965 117.313L185.69 139.741L180.845 140.651L162.201 141.154Z" fill="#386E25"/>
<path d="M197.757 317.694V317.607C174.664 319.339 151.579 312.174 133.25 296.541C94.0702 263.127 89.5127 201.985 123.09 160.244C139.746 139.539 162.993 126.772 188.549 124.297C192.119 123.952 194.839 120.68 194.625 116.99C194.411 113.3 191.342 110.589 187.773 110.935C158.681 113.752 132.217 128.285 113.255 151.856C75.0308 199.374 80.2193 268.98 124.821 307.019C130.354 311.738 136.265 315.777 142.458 319.132C172.871 335.605 210.036 335.517 242.013 317.771C243.416 316.993 244.451 315.77 245.035 314.369L197.757 317.694Z" fill="url(#paint11_linear_275_538)"/>
<path d="M202.601 316.783V316.696C179.508 318.428 156.423 311.262 138.093 295.63C98.9141 262.216 94.3564 201.073 127.933 159.333C144.589 138.627 167.837 125.861 193.392 123.386C196.963 123.04 199.683 119.769 199.469 116.079C199.255 112.389 196.186 109.678 192.617 110.024C163.524 112.841 137.06 127.374 118.099 150.945C79.8745 198.463 85.0631 268.068 129.665 306.108C135.198 310.826 141.108 314.866 147.302 318.22C177.714 334.694 214.88 334.606 246.856 316.86C248.259 316.082 249.294 314.859 249.879 313.457L202.601 316.783Z" fill="url(#paint12_linear_275_538)"/>
<path d="M167.044 140.244L189.177 116.905L167.37 94.7535L186.014 94.25L207.808 116.402L185.688 139.74L167.044 140.244Z" fill="url(#paint13_linear_275_538)"/>
<path d="M226.85 228.379C231.67 229.436 236.506 226.062 237.651 220.843C238.796 215.624 235.816 210.536 230.996 209.478C230.746 209.424 230.497 209.388 230.247 209.356C230.376 206.599 230.306 203.873 230.038 201.196C230.282 201.132 230.526 201.065 230.769 200.978C235.516 199.284 238.214 193.818 236.796 188.769C235.377 183.72 230.379 181.001 225.632 182.695C225.384 182.783 225.145 182.888 224.908 182.997C223.748 180.613 222.415 178.337 220.921 176.187C221.11 175.998 221.298 175.805 221.476 175.597C224.877 171.605 224.715 165.512 221.113 161.987C217.511 158.461 211.833 158.839 208.432 162.83C208.257 163.035 208.099 163.248 207.943 163.463C205.83 162.074 203.593 160.859 201.246 159.83C201.325 159.569 201.4 159.307 201.459 159.037C202.604 153.817 204.356 147.986 199.52 147.004C188.333 144.733 185.149 149.989 184.004 155.208C183.944 155.478 183.903 155.748 183.865 156.017C181.303 155.97 178.763 156.137 176.262 156.514C176.211 156.254 176.156 155.994 176.083 155.735C174.665 150.686 175.458 147.549 170.556 148.72C159.866 151.273 157.475 156.821 158.894 161.869C158.968 162.133 159.057 162.387 159.151 162.638C156.893 163.965 154.73 165.474 152.679 167.153C152.509 166.956 152.336 166.76 152.148 166.576C148.546 163.051 142.868 163.429 139.467 167.42C136.065 171.412 136.228 177.505 139.83 181.03C140.014 181.211 140.208 181.374 140.402 181.534C139.039 183.853 137.834 186.3 136.797 188.858C136.557 188.782 136.316 188.71 136.066 188.655C131.246 187.598 126.41 190.972 125.265 196.191C124.121 201.41 127.1 206.499 131.92 207.556C132.17 207.611 132.419 207.646 132.669 207.678C132.54 210.435 132.61 213.162 132.878 215.838C132.634 215.902 132.39 215.97 132.147 216.056C127.4 217.751 124.702 223.216 126.121 228.265C127.539 233.314 132.538 236.033 137.284 234.339C137.532 234.251 137.772 234.146 138.008 234.037C139.168 236.421 140.501 238.697 141.996 240.847C141.806 241.036 141.619 241.229 141.441 241.438C138.039 245.429 138.202 251.522 141.804 255.048C145.406 258.573 154.245 258.351 157.646 254.36C157.821 254.156 154.818 253.786 154.973 253.571C157.086 254.96 159.324 256.175 161.671 257.205C161.592 257.465 161.517 257.727 161.458 257.998C160.313 263.217 163.292 268.305 168.112 269.362C172.932 270.42 177.768 267.046 178.913 261.826C178.972 261.556 179.014 261.286 179.051 261.017C181.614 261.064 184.154 260.897 186.654 260.52C186.706 260.781 186.761 261.041 186.833 261.299C188.252 266.348 193.25 269.067 197.997 267.374C202.744 265.68 205.442 260.213 204.023 255.165C203.949 254.901 203.86 254.648 203.766 254.397C206.023 253.07 208.187 251.56 210.238 249.881C210.408 250.079 210.581 250.274 210.769 250.458C214.371 253.983 220.049 253.606 223.45 249.614C226.852 245.622 226.689 239.529 223.087 236.004C222.903 235.823 222.709 235.66 222.515 235.5C223.878 233.181 225.083 230.734 226.12 228.176C226.359 228.252 226.6 228.324 226.85 228.379ZM173.931 242.829C156.431 238.99 145.613 220.517 149.77 201.567C153.926 182.617 171.483 170.367 188.984 174.206C206.485 178.044 217.303 196.518 213.146 215.468C208.989 234.418 191.433 246.668 173.931 242.829Z" fill="url(#paint14_linear_275_538)"/>
<path d="M230.769 200.978C235.516 199.284 238.214 193.818 236.795 188.769C235.377 183.721 230.379 181.001 225.632 182.695C225.384 182.784 225.145 182.888 224.908 182.997C223.748 180.613 222.415 178.337 220.92 176.187C221.11 175.998 221.297 175.805 221.475 175.597C224.877 171.605 228.194 163.233 224.249 160.096C216.763 154.142 211.833 158.839 208.431 162.831C208.257 163.035 208.098 163.248 207.943 163.463C205.83 162.074 203.592 160.859 201.245 159.829C201.324 159.569 201.399 159.307 201.459 159.037C202.082 156.196 201.476 153.4 200.024 151.266C197.842 159.375 195.723 167.5 193.684 175.645C208.366 181.484 216.916 198.279 213.146 215.468C209.951 230.034 198.837 240.631 185.919 243.016C185.734 244.63 185.561 246.25 185.332 247.86C184.711 252.23 183.846 256.577 182.977 260.919C184.21 260.836 185.437 260.704 186.654 260.52C186.705 260.781 186.76 261.041 186.832 261.299C188.251 266.348 192.451 269.86 201.136 267.108C205.941 265.586 205.441 260.214 204.022 255.165C203.948 254.901 203.858 254.647 203.765 254.397C206.022 253.069 208.186 251.56 210.237 249.881C210.406 250.079 210.58 250.274 210.768 250.458C214.37 253.983 223.565 253.492 226.966 249.501C230.368 245.509 226.688 239.529 223.086 236.004C222.901 235.823 222.708 235.66 222.513 235.5C223.877 233.181 225.082 230.734 226.119 228.176C226.358 228.252 226.6 228.324 226.85 228.379C231.67 229.436 236.506 226.062 237.65 220.843C238.795 215.624 235.816 210.535 230.996 209.478C230.746 209.423 230.496 209.388 230.247 209.356C230.376 206.599 230.305 203.872 230.038 201.196C230.282 201.132 230.526 201.065 230.769 200.978Z" fill="url(#paint15_linear_275_538)"/>
<path d="M231.566 227.711C236.387 228.768 241.222 225.394 242.367 220.175C243.512 214.956 240.532 209.868 235.712 208.81C235.462 208.756 235.213 208.72 234.964 208.689C235.093 205.931 235.022 203.205 234.755 200.528C234.999 200.464 235.243 200.397 235.486 200.31C240.232 198.616 242.931 193.15 241.512 188.101C240.093 183.052 235.095 180.333 230.348 182.027C230.1 182.116 229.861 182.22 229.625 182.329C228.464 179.946 227.132 177.669 225.637 175.519C225.827 175.33 226.014 175.137 226.192 174.929C229.593 170.938 229.431 164.844 225.829 161.319C222.227 157.794 216.549 158.172 213.148 162.163C212.974 162.367 212.815 162.581 212.659 162.796C210.546 161.406 208.309 160.192 205.962 159.162C206.041 158.902 206.116 158.639 206.175 158.369C207.32 153.15 204.341 148.062 199.52 147.004C194.7 145.947 189.865 149.321 188.72 154.54C188.66 154.811 188.619 155.08 188.581 155.349C186.019 155.302 183.479 155.469 180.978 155.846C180.927 155.586 180.872 155.326 180.799 155.067C179.381 150.019 174.383 147.299 169.636 148.993C164.889 150.687 162.191 156.153 163.61 161.202C163.684 161.466 163.773 161.719 163.866 161.97C161.609 163.297 159.446 164.807 157.395 166.486C157.225 166.288 157.052 166.093 156.864 165.908C153.262 162.383 147.584 162.761 144.183 166.752C140.781 170.744 140.944 176.837 144.546 180.362C144.73 180.543 144.923 180.707 145.118 180.867C143.755 183.186 142.549 185.632 141.513 188.19C141.273 188.115 141.032 188.043 140.782 187.988C135.962 186.93 131.126 190.304 129.981 195.524C128.836 200.743 131.816 205.831 136.636 206.888C136.886 206.943 137.135 206.979 137.385 207.01C137.255 209.767 137.326 212.494 137.594 215.17C137.35 215.235 137.106 215.302 136.863 215.389C132.116 217.083 129.418 222.549 130.836 227.598C132.255 232.646 137.253 235.366 142 233.672C142.248 233.583 142.487 233.478 142.724 233.37C143.884 235.753 145.217 238.03 146.711 240.18C146.522 240.369 146.334 240.562 146.157 240.77C142.755 244.761 142.918 250.855 146.52 254.38C150.121 257.905 155.799 257.527 159.2 253.536C159.375 253.331 159.533 253.118 159.689 252.903C161.802 254.293 164.039 255.507 166.386 256.537C166.308 256.797 166.233 257.06 166.173 257.33C165.028 262.549 168.008 267.637 172.828 268.695C177.648 269.752 182.484 266.378 183.628 261.159C183.688 260.888 183.729 260.619 183.767 260.349C186.329 260.397 188.87 260.23 191.37 259.852C191.422 260.113 191.476 260.373 191.549 260.632C192.968 265.68 197.966 268.4 202.713 266.706C207.459 265.012 210.157 259.546 208.739 254.497C208.665 254.233 208.575 253.98 208.482 253.729C210.739 252.402 212.902 250.892 214.954 249.213C215.123 249.411 215.296 249.606 215.485 249.79C219.087 253.316 224.764 252.938 228.166 248.946C231.567 244.955 231.405 238.862 227.803 235.336C227.618 235.156 227.425 234.992 227.23 234.832C228.593 232.513 229.799 230.067 230.836 227.509C231.075 227.584 231.317 227.656 231.566 227.711ZM178.648 242.161C161.147 238.322 150.329 219.849 154.486 200.899C158.643 181.949 176.2 169.699 193.7 173.537C211.201 177.376 222.019 195.85 217.862 214.8C213.706 233.75 196.149 246 178.648 242.161Z" fill="url(#paint16_linear_275_538)"/>
<path d="M257.304 308.071C259.916 309.397 263.197 308.18 264.633 305.352C266.069 302.524 265.116 299.156 262.504 297.83C262.368 297.762 262.23 297.704 262.092 297.649C262.577 296.084 262.943 294.507 263.188 292.929C263.338 292.929 263.488 292.926 263.641 292.913C266.621 292.647 268.985 289.909 268.923 286.797C268.861 283.685 266.395 281.377 263.415 281.643C263.259 281.657 263.106 281.681 262.954 281.708C262.643 280.166 262.216 278.659 261.678 277.201C261.815 277.121 261.952 277.038 262.085 276.945C264.634 275.159 265.449 271.634 263.905 269.071C262.361 266.509 259.043 265.88 256.494 267.666C256.363 267.757 256.241 267.856 256.119 267.956C255.112 266.843 254.008 265.812 252.813 264.87C252.897 264.733 252.979 264.593 253.054 264.447C254.49 261.619 256.366 258.529 253.733 257.245C247.645 254.272 245.031 256.817 243.596 259.645C243.521 259.791 243.457 259.94 243.396 260.089C241.93 259.68 240.446 259.397 238.953 259.241C238.963 259.084 238.97 258.926 238.967 258.767C238.904 255.655 239.828 253.97 236.837 253.912C230.314 253.785 228.114 256.617 228.176 259.729C228.179 259.891 228.193 260.05 228.209 260.208C226.715 260.634 225.247 261.179 223.818 261.838C223.75 261.699 223.679 261.561 223.599 261.427C222.055 258.865 218.737 258.235 216.187 260.021C213.638 261.808 212.823 265.333 214.367 267.895C214.446 268.026 214.532 268.149 214.62 268.27C213.492 269.399 212.434 270.625 211.457 271.94C211.331 271.861 211.203 271.784 211.067 271.715C208.456 270.389 205.174 271.607 203.739 274.435C202.303 277.262 203.256 280.63 205.868 281.956C206.003 282.025 206.141 282.083 206.28 282.138C205.794 283.702 205.429 285.279 205.183 286.857C205.034 286.858 204.883 286.86 204.731 286.874C201.751 287.139 199.386 289.878 199.448 292.99C199.511 296.102 201.977 298.409 204.957 298.144C205.112 298.13 205.266 298.105 205.418 298.078C205.729 299.62 206.155 301.127 206.693 302.585C206.556 302.665 206.42 302.748 206.287 302.841C203.737 304.627 202.922 308.153 204.466 310.715C206.01 313.277 211.122 314.468 213.671 312.682C213.801 312.59 212.131 311.93 212.253 311.83C213.259 312.943 214.364 313.975 215.559 314.916C215.475 315.054 215.392 315.193 215.318 315.34C213.882 318.168 214.835 321.535 217.447 322.861C220.059 324.187 223.34 322.97 224.776 320.142C224.85 319.995 224.914 319.847 224.976 319.697C226.441 320.107 227.925 320.389 229.418 320.546C229.409 320.703 229.402 320.86 229.405 321.02C229.467 324.132 231.933 326.439 234.913 326.174C237.893 325.908 240.258 323.17 240.196 320.058C240.192 319.895 240.179 319.736 240.163 319.578C241.657 319.152 243.125 318.608 244.554 317.949C244.622 318.087 244.692 318.226 244.773 318.359C246.317 320.922 249.635 321.551 252.184 319.765C254.734 317.979 255.549 314.454 254.005 311.891C253.926 311.76 253.839 311.637 253.751 311.516C254.88 310.387 255.937 309.161 256.915 307.846C257.041 307.925 257.169 308.002 257.304 308.071ZM224.747 308.484C215.264 303.67 211.803 291.443 217.016 281.176C222.229 270.908 234.142 266.487 243.625 271.302C253.108 276.116 256.569 288.343 251.356 298.611C246.142 308.878 234.229 313.299 224.747 308.484Z" fill="url(#paint17_linear_275_538)"/>
<path d="M263.641 292.912C266.62 292.647 268.985 289.908 268.923 286.796C268.86 283.684 266.394 281.377 263.415 281.642C263.259 281.656 263.106 281.681 262.954 281.708C262.642 280.166 262.216 278.659 261.678 277.201C261.815 277.121 261.951 277.038 262.085 276.944C264.634 275.159 267.788 270.843 265.989 268.453C262.576 263.916 259.043 265.879 256.494 267.665C256.363 267.757 256.24 267.856 256.119 267.956C255.112 266.843 254.007 265.811 252.813 264.87C252.896 264.732 252.979 264.593 253.053 264.446C253.835 262.907 253.904 261.21 253.387 259.768C250.925 264.102 248.496 268.453 246.11 272.829C253.675 278.372 256.084 289.297 251.355 298.61C247.348 306.503 239.383 310.934 231.606 310.379C231.259 311.279 230.918 312.183 230.546 313.074C229.538 315.492 228.393 317.861 227.246 320.226C227.967 320.362 228.692 320.469 229.418 320.545C229.409 320.702 229.402 320.86 229.405 321.019C229.467 324.131 231.357 326.775 236.757 326.489C239.744 326.331 240.258 323.17 240.195 320.057C240.192 319.895 240.178 319.736 240.162 319.578C241.657 319.152 243.125 318.607 244.554 317.948C244.621 318.087 244.692 318.225 244.773 318.359C246.317 320.921 251.673 322.01 254.222 320.224C256.771 318.438 255.549 314.453 254.005 311.891C253.925 311.76 253.839 311.637 253.751 311.516C254.88 310.387 255.937 309.161 256.914 307.846C257.041 307.925 257.169 308.002 257.304 308.071C259.916 309.397 263.197 308.179 264.633 305.351C266.069 302.523 265.115 299.156 262.504 297.83C262.368 297.761 262.23 297.704 262.092 297.648C262.577 296.084 262.943 294.506 263.188 292.929C263.338 292.928 263.488 292.926 263.641 292.912Z" fill="url(#paint18_linear_275_538)"/>
<path d="M260.113 308.391C262.725 309.717 266.006 308.499 267.442 305.671C268.877 302.844 267.924 299.476 265.313 298.15C265.177 298.081 265.039 298.023 264.901 297.968C265.386 296.403 265.752 294.826 265.997 293.249C266.147 293.248 266.297 293.246 266.45 293.232C269.429 292.967 271.794 290.228 271.732 287.116C271.67 284.004 269.203 281.696 266.224 281.962C266.068 281.976 265.915 282.001 265.763 282.028C265.452 280.485 265.025 278.979 264.487 277.521C264.624 277.441 264.76 277.358 264.894 277.264C267.443 275.478 268.258 271.953 266.714 269.391C265.17 266.828 261.852 266.199 259.303 267.985C259.172 268.077 259.049 268.176 258.928 268.276C257.921 267.163 256.817 266.131 255.622 265.19C255.706 265.052 255.788 264.913 255.862 264.766C257.298 261.938 256.345 258.571 253.733 257.245C251.122 255.919 247.84 257.136 246.404 259.964C246.33 260.111 246.266 260.259 246.204 260.408C244.739 259.999 243.255 259.716 241.762 259.56C241.771 259.403 241.779 259.246 241.775 259.086C241.713 255.974 239.247 253.667 236.267 253.932C233.287 254.198 230.922 256.936 230.985 260.048C230.988 260.21 231.002 260.37 231.018 260.527C229.523 260.954 228.055 261.498 226.626 262.157C226.558 262.018 226.488 261.88 226.407 261.746C224.863 259.184 221.545 258.555 218.996 260.341C216.446 262.127 215.631 265.652 217.175 268.214C217.254 268.346 217.341 268.468 217.429 268.59C216.3 269.719 215.243 270.945 214.266 272.26C214.139 272.18 214.011 272.103 213.876 272.034C211.264 270.708 207.983 271.926 206.547 274.754C205.111 277.582 206.065 280.949 208.676 282.275C208.812 282.344 208.95 282.402 209.088 282.457C208.603 284.022 208.237 285.599 207.992 287.176C207.842 287.177 207.692 287.179 207.539 287.193C204.56 287.459 202.195 290.197 202.257 293.309C202.319 296.421 204.786 298.729 207.765 298.463C207.921 298.449 208.074 298.425 208.226 298.397C208.537 299.94 208.964 301.446 209.502 302.904C209.365 302.985 209.229 303.068 209.095 303.161C206.546 304.947 205.731 308.472 207.275 311.034C208.819 313.597 212.137 314.226 214.686 312.44C214.817 312.348 214.94 312.25 215.061 312.149C216.068 313.262 217.173 314.294 218.367 315.235C218.283 315.373 218.201 315.512 218.127 315.659C216.691 318.487 217.644 321.854 220.256 323.18C222.868 324.506 226.149 323.289 227.585 320.461C227.659 320.315 227.723 320.166 227.785 320.017C229.25 320.426 230.734 320.709 232.227 320.865C232.218 321.022 232.21 321.179 232.214 321.339C232.276 324.451 234.742 326.758 237.722 326.493C240.702 326.227 243.067 323.489 243.004 320.377C243.001 320.214 242.987 320.055 242.971 319.897C244.466 319.471 245.934 318.927 247.363 318.268C247.431 318.407 247.501 318.545 247.582 318.678C249.126 321.241 252.444 321.87 254.993 320.084C257.543 318.298 258.358 314.773 256.814 312.21C256.735 312.079 256.648 311.957 256.56 311.835C257.689 310.706 258.746 309.48 259.723 308.165C259.849 308.245 259.978 308.322 260.113 308.391ZM227.555 308.804C218.073 303.989 214.612 291.763 219.825 281.495C225.038 271.228 236.951 266.807 246.434 271.622C255.916 276.436 259.377 288.662 254.164 298.93C248.951 309.198 237.038 313.618 227.555 308.804Z" fill="url(#paint19_linear_275_538)"/>
<defs>
<filter id="filter0_d_275_538" x="0" y="0" width="437.559" height="394" filterUnits="userSpaceOnUse" color-interpolation-filters="sRGB">
<feFlood flood-opacity="0" result="BackgroundImageFix"/>
<feColorMatrix in="SourceAlpha" type="matrix" values="0 0 0 0 0 0 0 0 0 0 0 0 0 0 0 0 0 0 127 0" result="hardAlpha"/>
<feOffset dx="6" dy="11"/>
<feGaussianBlur stdDeviation="1"/>
<feComposite in2="hardAlpha" operator="out"/>
<feColorMatrix type="matrix" values="0 0 0 0 0.247059 0 0 0 0 0.521569 0 0 0 0 0.14902 0 0 0 1 0"/>
<feBlend mode="normal" in2="BackgroundImageFix" result="effect1_dropShadow_275_538"/>
<feBlend mode="normal" in="SourceGraphic" in2="effect1_dropShadow_275_538" result="shape"/>
</filter>
<linearGradient id="paint0_linear_275_538" x1="401.72" y1="117.251" x2="180.72" y2="254.813" gradientUnits="userSpaceOnUse">
<stop stop-color="#799B91"/>
<stop offset="1" stop-color="#3E6764"/>
</linearGradient>
<linearGradient id="paint1_linear_275_538" x1="235.248" y1="54.7696" x2="300.753" y2="284.28" gradientUnits="userSpaceOnUse">
<stop stop-color="#799B91"/>
<stop offset="1" stop-color="#3E6764"/>
</linearGradient>
<linearGradient id="paint2_linear_275_538" x1="307.419" y1="280.174" x2="48.6181" y2="130.138" gradientUnits="userSpaceOnUse">
<stop stop-color="#D3C5CB"/>
<stop offset="1" stop-color="#ADA0A6"/>
</linearGradient>
<linearGradient id="paint3_linear_275_538" x1="305.905" y1="179.252" x2="512.344" y2="179.252" gradientUnits="userSpaceOnUse">
<stop stop-color="#5D535A"/>
<stop offset="1" stop-color="#464143"/>
</linearGradient>
<linearGradient id="paint4_linear_275_538" x1="217.93" y1="75.6866" x2="239.339" y2="216.867" gradientUnits="userSpaceOnUse">
<stop stop-color="#96888E"/>
<stop offset="1" stop-color="#706369"/>
</linearGradient>
<linearGradient id="paint5_linear_275_538" x1="281.054" y1="217.342" x2="318.399" y2="217.342" gradientUnits="userSpaceOnUse">
<stop stop-color="#F6AF9A"/>
<stop offset="0.9964" stop-color="#F89F8A"/>
</linearGradient>
<linearGradient id="paint6_linear_275_538" x1="268.077" y1="181.143" x2="344.957" y2="330.414" gradientUnits="userSpaceOnUse">
<stop stop-color="#D3C5CB"/>
<stop offset="1" stop-color="#ADA0A6"/>
</linearGradient>
<linearGradient id="paint7_linear_275_538" x1="255.456" y1="190.21" x2="329.092" y2="333.181" gradientUnits="userSpaceOnUse">
<stop stop-color="#D3C5CB"/>
<stop offset="1" stop-color="#ADA0A6"/>
</linearGradient>
<linearGradient id="paint8_linear_275_538" x1="243.237" y1="196.876" x2="315.81" y2="337.784" gradientUnits="userSpaceOnUse">
<stop stop-color="#D3C5CB"/>
<stop offset="1" stop-color="#ADA0A6"/>
</linearGradient>
<linearGradient id="paint9_linear_275_538" x1="243.857" y1="195.494" x2="318.345" y2="340.121" gradientUnits="userSpaceOnUse">
<stop stop-color="#D3C5CB"/>
<stop offset="1" stop-color="#ADA0A6"/>
</linearGradient>
<linearGradient id="paint10_linear_275_538" x1="257.258" y1="187.632" x2="332.941" y2="334.577" gradientUnits="userSpaceOnUse">
<stop stop-color="#D3C5CB"/>
<stop offset="1" stop-color="#ADA0A6"/>
</linearGradient>
<linearGradient id="paint11_linear_275_538" x1="104.563" y1="135.993" x2="121.423" y2="159.796" gradientUnits="userSpaceOnUse">
<stop stop-color="#3F8526"/>
<stop offset="1" stop-color="#3F8526"/>
</linearGradient>
<linearGradient id="paint12_linear_275_538" x1="92.5049" y1="220.186" x2="249.879" y2="220.186" gradientUnits="userSpaceOnUse">
<stop stop-color="#3F8526"/>
<stop offset="0.9964" stop-color="#75FF44"/>
</linearGradient>
<linearGradient id="paint13_linear_275_538" x1="167.044" y1="117.247" x2="207.808" y2="117.247" gradientUnits="userSpaceOnUse">
<stop stop-color="#49A628"/>
<stop offset="0.9964" stop-color="#78FF48"/>
</linearGradient>
<linearGradient id="paint14_linear_275_538" x1="378.649" y1="24.0282" x2="77.3251" y2="305.943" gradientUnits="userSpaceOnUse">
<stop stop-color="#86A1C3"/>
<stop offset="0.9964" stop-color="#415B7E"/>
</linearGradient>
<linearGradient id="paint15_linear_275_538" x1="389.558" y1="35.6895" x2="88.2345" y2="317.604" gradientUnits="userSpaceOnUse">
<stop stop-color="#86A1C3"/>
<stop offset="0.9964" stop-color="#415B7E"/>
</linearGradient>
<linearGradient id="paint16_linear_275_538" x1="98.8045" y1="136.879" x2="405.262" y2="385.814" gradientUnits="userSpaceOnUse">
<stop stop-color="#95AFC7"/>
<stop offset="1" stop-color="#7595B6"/>
</linearGradient>
<linearGradient id="paint17_linear_275_538" x1="443.857" y1="93.7268" x2="142.534" y2="375.641" gradientUnits="userSpaceOnUse">
<stop stop-color="#86A1C3"/>
<stop offset="0.9964" stop-color="#415B7E"/>
</linearGradient>
<linearGradient id="paint18_linear_275_538" x1="453.078" y1="103.582" x2="151.755" y2="385.496" gradientUnits="userSpaceOnUse">
<stop stop-color="#86A1C3"/>
<stop offset="0.9964" stop-color="#415B7E"/>
</linearGradient>
<linearGradient id="paint19_linear_275_538" x1="190.798" y1="270.614" x2="256.255" y2="298.384" gradientUnits="userSpaceOnUse">
<stop stop-color="#95AFC7"/>
<stop offset="1" stop-color="#7595B6"/>
</linearGradient>
</defs>
</svg>
