<svg width="386" height="311" viewBox="0 0 386 311" fill="none" xmlns="http://www.w3.org/2000/svg">
<g filter="url(#filter0_d_275_539)">
<path d="M314.009 21.2705C348.162 44.5011 370.067 87.8807 366.534 126.993C362.766 166.106 333.559 200.952 308.121 231.294C282.683 261.636 261.249 287.474 235.104 295.06C208.724 302.645 177.398 291.978 137.827 285.578C98.257 279.414 50.2073 277.281 23.8271 252.628C-2.55315 227.738 -7.26391 180.092 10.8725 146.905C29.2444 113.956 70.228 95.2291 103.439 71.7615C136.65 48.2939 162.088 20.0853 197.889 7.28478C233.691 -5.2787 280.092 -2.1971 314.009 21.2705Z" fill="white"/>
<path d="M313.156 22.5041L313.166 22.5108C346.91 45.4632 368.52 88.3359 365.041 126.858C363.186 146.089 355.069 164.347 344.184 181.633C333.295 198.926 319.702 215.146 306.972 230.33L306.144 231.318C293.729 246.127 282.322 259.735 270.845 270.622C259.119 281.746 247.432 289.92 234.69 293.618C221.821 297.318 207.66 296.591 191.644 294.081C183.805 292.853 175.565 291.206 166.843 289.463L166.305 289.355C157.393 287.574 147.99 285.702 138.067 284.097L138.058 284.096C131.308 283.044 124.35 282.114 117.314 281.173C103.585 279.338 89.5588 277.463 76.1983 274.571C56.0237 270.203 37.7432 263.578 24.8543 251.535C11.9768 239.384 4.32322 221.607 2.1462 202.706C-0.0303052 183.81 3.28447 163.921 12.1856 147.63C21.2057 131.456 35.8202 118.696 52.4536 107.005C60.6727 101.228 69.3485 95.7356 78.0553 90.2238L78.3504 90.037C87.1447 84.4697 95.9655 78.879 104.304 72.9865C114.861 65.5269 124.687 57.5482 134.261 49.774C139.763 45.3059 145.183 40.9054 150.61 36.7097C165.551 25.1592 180.712 15.0201 198.39 8.69876C233.802 -3.72642 279.687 -0.653125 313.156 22.5041Z" stroke="#3F8526" stroke-opacity="0.5" stroke-width="3"/>
</g>
<path d="M314.5 135.5C315.3 136.7 313.833 138 313 138.5L316.5 136.5C315.5 135.666 313.7 134.3 314.5 135.5Z" fill="#69E23D"/>
<rect x="91.0352" y="62.2295" width="208.3" height="190.538" rx="95.2691" fill="white"/>
<path d="M274.903 197.059C273.056 195.578 270.356 195.876 268.875 197.725C266.915 200.171 264.794 202.556 262.575 204.813C260.914 206.502 260.937 209.218 262.625 210.879C263.46 211.7 264.546 212.11 265.632 212.11C266.742 212.11 267.851 211.681 268.69 210.828C271.113 208.365 273.427 205.76 275.568 203.088C277.05 201.24 276.752 198.541 274.903 197.059Z" fill="black"/>
<path d="M258.059 214.888C256.628 213 253.937 212.629 252.05 214.061C235.831 226.355 216.177 233.48 195.213 234.666C192.848 234.8 191.039 236.825 191.173 239.19C191.302 241.473 193.193 243.237 195.451 243.237C195.533 243.237 195.615 243.235 195.697 243.23C218.37 241.947 239.648 234.224 257.231 220.897C259.119 219.466 259.49 216.776 258.059 214.888Z" fill="black"/>
<path d="M300.058 134.93L300.057 134.929C297.611 125.622 293.722 116.706 288.497 108.428C281.068 96.6581 271.284 86.5757 259.416 78.4604C240.796 65.7293 218.679 59 195.455 59C188.959 59 182.437 59.5429 176.069 60.6135C158.02 63.6478 140.982 70.9953 126.799 81.8619C105.953 97.8347 92.4616 120.223 88.8116 144.903C88.1447 149.411 87.8066 153.986 87.8066 158.5C87.8066 176.215 92.9069 193.608 102.556 208.799C111.886 223.49 125.226 235.806 141.134 244.415C141.135 244.416 141.136 244.417 141.138 244.417C150.163 249.302 159.885 252.93 170.033 255.201C178.33 257.058 186.884 258 195.455 258C216.274 258 236.475 252.497 253.873 242.087C270.87 231.918 284.387 217.606 292.964 200.699C299.693 187.435 303.104 173.238 303.104 158.5C303.104 150.552 302.079 142.622 300.058 134.93ZM261.118 90.4174C266.494 94.7793 271.307 99.634 275.523 104.944L267.045 102.997C264.326 102.372 261.532 103.033 259.38 104.808C257.228 106.584 256.049 109.202 256.146 111.991C256.15 112.106 256.093 112.217 255.995 112.28L249.768 116.348C249.663 116.416 249.529 116.42 249.421 116.358L240.648 111.362C239.868 110.917 239.466 109.996 239.671 109.121L241.645 100.695C241.856 99.7926 242.651 99.145 243.577 99.1193L251.009 98.9124C255.994 98.7737 260.144 95.1334 261.118 90.4174ZM141.091 224.99L139.837 233.739C112.885 216.901 96.3841 188.585 96.3841 158.5C96.3841 155.838 96.5136 153.154 96.7705 150.476L102.51 151.403C103.956 151.637 105.432 151.756 106.899 151.756H109.806C113.836 151.756 117.839 153.078 121.076 155.478L125.482 158.744C125.858 159.023 126.104 159.451 126.154 159.918L126.751 165.442C126.847 166.335 126.228 167.147 125.34 167.289C120.332 168.09 116.617 172.519 116.699 177.59L117.013 197.036C117.048 199.245 117.775 201.341 119.116 203.097L126.106 212.256C129.404 216.578 133.864 219.799 139.003 221.571C140.426 222.062 141.304 223.499 141.091 224.99ZM168.721 246.067C161.466 244.205 154.47 241.584 147.855 238.251L149.581 226.208C150.378 220.652 147.105 215.292 141.799 213.462C138.263 212.243 135.194 210.026 132.924 207.052L125.935 197.894C125.715 197.605 125.595 197.26 125.589 196.898L125.276 177.452C125.262 176.618 125.873 175.891 126.696 175.759C132.097 174.895 135.867 169.958 135.279 164.52L134.682 158.995C134.376 156.157 132.884 153.553 130.59 151.853L126.185 148.587C121.48 145.099 115.663 143.178 109.806 143.178H106.899C105.89 143.178 104.874 143.096 103.879 142.936L98.0207 141.989C102.179 121.177 114.136 102.37 132.016 88.6703C144.619 79.0138 159.682 72.3695 175.685 69.3919C178.113 71.4116 179.992 74.0019 181.165 76.9656L181.408 77.5808C182.017 79.1194 182.422 80.7333 182.612 82.3774L182.828 84.2487C183.212 87.5769 182.702 90.9578 181.356 94.0254L179.024 99.3384C177.497 102.815 174.992 105.723 171.779 107.746L168.873 109.575C165.929 111.428 164.208 114.738 164.381 118.213L164.774 126.063C164.794 126.463 164.608 126.73 164.448 126.883C164.288 127.035 164.014 127.208 163.614 127.171C163.26 127.138 162.949 126.931 162.78 126.618L159.211 119.991C157.976 117.695 155.827 115.977 153.316 115.276L140.702 111.755C137.387 110.83 133.836 111.105 130.703 112.529L127.699 113.895C121.38 116.767 117.926 123.761 119.487 130.524C120.105 133.202 121.459 135.646 123.403 137.589L131.598 145.785C132.06 146.246 132.503 146.738 132.915 147.247L138.534 154.177C141.015 157.237 144.693 158.99 148.631 158.989C148.645 158.989 148.658 158.989 148.671 158.989L163.978 158.943C163.982 158.943 163.987 158.943 163.992 158.943C165.558 158.943 167.021 159.782 167.811 161.137C169.649 164.288 172.749 166.534 176.316 167.298L182.051 168.527C183.312 168.797 184.39 169.601 185.007 170.733L187.777 175.811C188.888 177.848 190.567 179.479 192.635 180.53L205.653 187.145C206.723 187.689 207.342 188.855 207.193 190.046C207.107 190.737 206.773 191.371 206.251 191.832L201.307 196.206C199.913 197.439 198.83 199.012 198.176 200.755L197.098 203.629C196.77 204.505 196.087 205.213 195.222 205.571L189.955 207.755C185.469 209.615 182.57 213.955 182.57 218.812C182.57 219.358 182.436 219.903 182.182 220.387L168.721 246.067ZM195.455 249.423C189.406 249.423 183.367 248.917 177.436 247.916L189.779 224.369C190.674 222.662 191.148 220.74 191.148 218.812C191.148 217.435 191.969 216.205 193.241 215.678L198.508 213.494C201.558 212.229 203.972 209.73 205.13 206.64L206.208 203.767C206.372 203.332 206.642 202.939 206.99 202.63L211.935 198.256C214.021 196.411 215.359 193.873 215.705 191.111C216.301 186.343 213.824 181.676 209.539 179.498L196.521 172.883C196.005 172.621 195.585 172.213 195.308 171.704L192.538 166.626C190.723 163.298 187.556 160.934 183.849 160.139L178.114 158.911C176.901 158.651 175.846 157.886 175.221 156.815C172.898 152.834 168.598 150.365 163.992 150.365C163.978 150.365 163.965 150.365 163.952 150.365L148.645 150.412C148.641 150.412 148.637 150.412 148.632 150.412C147.292 150.412 146.04 149.816 145.196 148.775L139.578 141.845C138.978 141.106 138.333 140.39 137.662 139.719L129.468 131.525C128.662 130.72 128.101 129.707 127.845 128.597C127.199 125.793 128.63 122.895 131.249 121.704L134.252 120.339C135.551 119.749 137.023 119.634 138.397 120.018L151.011 123.538C151.287 123.616 151.523 123.805 151.66 124.057L155.229 130.685C156.759 133.526 159.589 135.405 162.802 135.711C165.589 135.977 168.351 135.018 170.376 133.083C172.401 131.147 173.482 128.432 173.342 125.634L172.95 117.785C172.931 117.402 173.12 117.038 173.444 116.834L176.35 115.004C181.02 112.064 184.66 107.839 186.879 102.787L189.211 97.4735C191.168 93.0153 191.908 88.1026 191.35 83.2651L191.133 81.3939C190.858 79.0054 190.269 76.6603 189.384 74.424L189.141 73.8084C188.319 71.732 187.254 69.7838 185.981 67.9912H185.986C189.133 67.7162 192.298 67.5778 195.456 67.5778C216.178 67.5778 235.929 73.3547 252.725 84.3063L252.757 88.2796C252.766 89.3839 251.875 90.3073 250.771 90.3384L243.34 90.5453C238.523 90.679 234.392 94.0489 233.294 98.7396L231.32 107.164C230.255 111.713 232.345 116.504 236.404 118.816L245.176 123.812C246.553 124.595 248.072 124.986 249.588 124.986C251.283 124.986 252.974 124.498 254.458 123.53L260.685 119.462C263.281 117.767 264.826 114.79 264.718 111.693C264.716 111.649 264.712 111.529 264.839 111.425C264.967 111.32 265.082 111.348 265.125 111.357L274.743 113.566C274.982 113.621 275.226 113.667 275.472 113.702L282.272 114.678C285.229 119.6 287.674 124.753 289.582 130.079L282.938 128.473C282.673 128.409 282.402 128.354 282.133 128.311L274.878 127.141C267.001 125.871 258.99 128.546 253.457 134.301L252.366 135.436C249.13 138.802 246.94 143.002 246.033 147.582L243.267 161.561C242.303 166.435 242.838 171.419 244.816 175.977C248.269 183.933 255.766 189.487 264.382 190.47L265.726 190.623C269.411 191.045 273.205 190.605 276.695 189.355L281.27 187.716C282.085 187.424 283 187.68 283.547 188.355L284.148 189.096C284.428 189.443 284.589 189.879 284.603 190.323L284.82 197.778C268.394 229.186 233.445 249.423 195.455 249.423ZM290.715 183.576L290.215 182.957C288.16 180.419 285.097 179.02 281.952 179.02C280.756 179.02 279.548 179.222 278.379 179.641L273.804 181.279C271.543 182.09 269.085 182.374 266.7 182.101L265.357 181.947C259.777 181.31 254.921 177.714 252.685 172.562C251.404 169.611 251.057 166.383 251.682 163.227L254.448 149.247C255.035 146.281 256.453 143.561 258.549 141.382L259.64 140.246C263.224 136.52 268.41 134.787 273.513 135.61L280.767 136.78C280.818 136.788 280.87 136.798 280.921 136.811L292.369 139.578C293.802 145.78 294.526 152.133 294.526 158.5C294.527 167.09 293.249 175.48 290.715 183.576Z" fill="black"/>
<rect x="143.244" y="113.093" width="23.6827" height="74.5467" fill="#FF006D"/>
<rect x="174.73" y="120.738" width="23.6827" height="66.9009" fill="#69E23D"/>
<rect x="206.219" y="141.765" width="23.6827" height="45.8749" fill="#00D1FF"/>
<rect x="237.707" y="163.985" width="23.6827" height="23.6543" fill="#FF0000"/>
<path d="M307.506 136.061L305.215 129.991L308.557 124.637L306.167 124.334L302.826 129.688L305.116 135.757L307.506 136.061Z" fill="#69E33E"/>
<path d="M306.008 131.826C311.794 131.64 318.528 136.464 312.736 140.73L314.5 144C326.61 132.87 309.372 128.483 306.008 129.043C304.666 129.267 304.662 131.826 306.008 131.826Z" fill="#69E23D"/>
<path d="M85.2072 164.01C62.278 292.527 228.926 198.216 315 137L314.5 144C84.2394 298.636 67.401 220.28 85.2079 160.671L85.2072 164.01Z" fill="#69E23D"/>
<defs>
<filter id="filter0_d_275_539" x="0" y="0" width="385.906" height="310.68" filterUnits="userSpaceOnUse" color-interpolation-filters="sRGB">
<feFlood flood-opacity="0" result="BackgroundImageFix"/>
<feColorMatrix in="SourceAlpha" type="matrix" values="0 0 0 0 0 0 0 0 0 0 0 0 0 0 0 0 0 0 127 0" result="hardAlpha"/>
<feOffset dx="16" dy="10"/>
<feGaussianBlur stdDeviation="1.5"/>
<feComposite in2="hardAlpha" operator="out"/>
<feColorMatrix type="matrix" values="0 0 0 0 0.247059 0 0 0 0 0.521569 0 0 0 0 0.14902 0 0 0 0.5 0"/>
<feBlend mode="normal" in2="BackgroundImageFix" result="effect1_dropShadow_275_539"/>
<feBlend mode="normal" in="SourceGraphic" in2="effect1_dropShadow_275_539" result="shape"/>
</filter>
</defs>
</svg>
